<svg version="1.1" id="Layer_1" xmlns="http://www.w3.org/2000/svg" xmlns:xlink="http://www.w3.org/1999/xlink" x="0px" y="0px"
	 width="100%" viewBox="0 0 512 512" enable-background="new 0 0 512 512" xml:space="preserve">
<path fill="#000000" opacity="1.000000" stroke="none" 
	d="
M1.000000,143.000000 
	C1.000000,96.500000 1.036118,50.499905 0.916599,4.500216 
	C0.908848,1.517114 1.518255,0.917449 4.500044,0.919060 
	C172.833328,1.010018 341.166656,1.010018 509.499969,0.919060 
	C512.481750,0.917449 513.082581,1.518255 513.080933,4.500044 
	C512.989990,172.833328 512.989929,341.166656 513.080933,509.499969 
	C513.082520,512.481750 512.481750,513.082520 509.499969,513.080933 
	C341.166656,512.989929 172.833313,512.983643 4.500080,513.107788 
	C0.825543,513.110474 0.950343,511.692535 0.951578,508.999969 
	C1.007445,387.166656 1.000000,265.333344 1.000000,143.000000 
z"/>
<path fill="#5A00D1" opacity="1.000000" stroke="none" 
	d="
M496.558228,252.736542 
	C496.888672,291.805176 496.651611,330.607452 497.119873,369.401245 
	C497.365509,389.751648 492.873352,408.829254 483.975189,426.851471 
	C475.022980,444.983185 461.902405,459.797058 445.827881,472.094635 
	C429.507141,484.580536 411.017517,491.972107 391.031250,495.729065 
	C386.906586,496.504425 382.618896,497.079468 378.274811,497.071686 
	C313.494263,496.955902 248.713486,496.975342 183.468277,496.898315 
	C180.397491,493.960907 182.808197,492.189331 184.643478,490.711395 
	C194.193451,483.020660 203.885620,475.503723 213.781097,468.264465 
	C215.692337,466.866241 217.324875,465.419464 218.910294,463.252960 
	C222.563904,462.292023 225.909927,462.530670 229.233795,462.528839 
	C273.052612,462.504730 316.871735,462.619781 360.690063,462.468475 
	C381.317169,462.397278 401.239990,458.998322 418.795410,447.212585 
	C444.777710,429.769470 459.365723,405.582825 461.542175,374.130188 
	C463.569031,344.839661 462.004028,315.516388 462.516083,286.213104 
	C462.574249,282.884308 462.371765,279.546600 462.954163,275.827637 
	C472.000488,267.694244 481.500336,260.660919 490.910339,253.518341 
	C492.390106,252.395142 494.133362,250.936813 496.558228,252.736542 
z"/>
<path fill="#900698" opacity="1.000000" stroke="none" 
	d="
M448.670349,92.915627 
	C456.718933,98.194946 462.292786,105.846840 469.939636,111.688583 
	C470.231354,113.953697 469.340210,115.334000 467.751282,116.554161 
	C449.095490,130.880005 430.828552,145.718948 411.552032,159.220184 
	C410.096680,160.239502 409.811401,162.041092 407.850830,162.878784 
	C396.196960,164.089951 385.109955,163.894791 374.473419,158.064667 
	C372.705597,154.765594 373.521545,152.467468 376.199982,150.526810 
	C385.122803,144.061905 393.261261,136.538910 402.748718,130.834106 
	C403.814362,130.193329 404.243530,129.124542 404.976959,127.803314 
	C409.672363,125.705635 414.338013,126.794945 418.902130,126.538536 
	C422.982483,126.309303 427.095490,126.807251 431.660126,126.170921 
	C428.935333,121.812523 424.325195,119.565849 422.306458,114.827499 
	C422.671265,112.167114 424.164520,110.618774 425.855957,109.220016 
	C432.268555,103.917023 438.968170,98.980179 445.504028,93.834389 
	C446.335114,93.180077 447.273285,92.950455 448.670349,92.915627 
z"/>
<path fill="#ED1036" opacity="1.000000" stroke="none" 
	d="
M128.729233,18.174112 
	C135.251816,15.921089 141.706680,17.503319 148.532196,17.099895 
	C151.576233,20.122141 149.152451,21.681322 147.184006,23.166277 
	C129.988007,36.138535 113.577812,50.165649 95.468719,61.904610 
	C93.171822,63.393543 91.719795,64.981674 91.319092,68.022568 
	C90.142433,69.642548 88.987953,70.761536 87.323273,71.904556 
	C83.436966,71.968277 80.592285,72.991081 77.799973,75.523506 
	C61.680027,90.143135 43.791828,102.559746 26.697252,115.968590 
	C24.916677,117.365257 22.862644,118.934731 20.352848,116.323166 
	C20.554966,109.914757 23.154993,104.452431 25.083847,98.400993 
	C56.343327,71.728012 89.589951,48.078598 121.507019,22.727905 
	C123.671333,21.008850 126.220390,19.956614 128.729233,18.174112 
z"/>
<path fill="#8705A1" opacity="1.000000" stroke="none" 
	d="
M408.185333,161.285645 
	C408.401215,159.500656 409.296082,158.570953 410.379150,157.740234 
	C430.110229,142.606949 449.830780,127.459946 469.850555,112.138382 
	C476.271240,117.571472 482.399689,123.177727 486.968231,130.648834 
	C486.357422,133.458282 484.672638,135.161896 482.603912,136.688980 
	C472.340027,144.265594 462.770020,152.770584 451.951660,159.605499 
	C450.551758,160.489929 450.497345,162.698135 448.114197,163.084717 
	C436.262878,163.788391 424.824463,163.458176 413.388611,163.365707 
	C411.598053,163.351227 409.684448,163.378265 408.185333,161.285645 
z"/>
<path fill="#D60E4E" opacity="1.000000" stroke="none" 
	d="
M220.692047,17.393120 
	C235.020020,17.123413 249.043625,17.080561 263.531738,17.102097 
	C266.732422,19.842848 264.794037,21.589668 262.721039,23.197872 
	C253.162933,30.612921 243.832977,38.334846 233.920319,45.271713 
	C231.577637,46.911118 229.891373,49.037743 227.446442,51.001968 
	C213.640778,51.756214 200.249313,51.647045 186.435944,51.079597 
	C182.469559,49.191250 182.816010,46.829571 185.054520,44.222385 
	C187.786041,41.040997 191.337189,38.840675 194.660721,36.393795 
	C203.209625,30.099848 210.861450,22.572697 220.692047,17.393120 
z"/>
<path fill="#DF0F44" opacity="1.000000" stroke="none" 
	d="
M220.531860,17.101656 
	C218.182617,23.303249 211.879105,25.669352 207.181961,29.736813 
	C201.546692,34.616673 195.371140,38.872066 189.437469,43.408234 
	C187.715103,44.724934 186.057800,46.110474 185.104523,48.519657 
	C184.181091,51.301628 182.006577,51.308571 180.054581,51.334332 
	C168.729614,51.483799 157.401672,51.801403 145.649536,51.069466 
	C141.538834,48.101994 141.267517,46.799313 144.711487,43.589058 
	C150.929520,37.792980 157.994003,33.020763 164.725784,27.852961 
	C169.445435,24.229811 173.827499,20.071959 179.699860,17.415876 
	C193.353302,17.123226 206.710297,17.080135 220.531860,17.101656 
z"/>
<path fill="#CD0D58" opacity="1.000000" stroke="none" 
	d="
M228.181107,49.285595 
	C228.836411,46.107716 230.992889,44.534351 233.119156,42.907536 
	C242.232346,35.935013 251.336548,28.950607 260.419373,21.938620 
	C261.850250,20.833977 263.452026,19.813337 263.931030,17.497849 
	C277.019623,17.123610 290.043060,17.080732 303.530945,17.102322 
	C306.153046,19.443731 304.767670,21.189411 302.967651,22.586769 
	C292.346252,30.832224 282.031982,39.499416 270.763367,46.862183 
	C268.983490,48.025127 268.789581,50.394180 266.239258,51.050468 
	C254.848221,51.803562 243.874969,51.472057 232.904236,51.341331 
	C231.263580,51.321781 229.535141,51.241051 228.181107,49.285595 
z"/>
<path fill="#6201C8" opacity="1.000000" stroke="none" 
	d="
M218.817230,464.714172 
	C217.547348,470.164246 212.701447,471.807495 209.234268,474.699036 
	C201.960327,480.765289 194.300003,486.368927 186.782379,492.141724 
	C185.316528,493.267426 183.892807,494.399628 183.112152,496.520142 
	C170.313446,496.876495 157.623108,496.919281 144.468246,496.897766 
	C141.146149,493.334778 144.456345,491.690369 146.348724,490.035919 
	C152.820404,484.377960 159.971497,479.563263 166.637589,474.139038 
	C171.194000,470.431488 176.518646,467.672363 180.760834,462.951111 
	C192.151215,462.195007 203.123978,462.528564 214.094193,462.658691 
	C215.734802,462.678162 217.463120,462.758942 218.817230,464.714172 
z"/>
<path fill="#6B02BF" opacity="1.000000" stroke="none" 
	d="
M179.829163,464.719269 
	C179.165619,467.887268 177.014664,469.459045 174.893188,471.083466 
	C166.064301,477.843689 157.251923,484.625427 148.438477,491.405762 
	C146.720490,492.727417 145.056198,494.105621 144.111816,496.519989 
	C131.735428,497.737152 119.855553,495.737946 107.847824,491.938293 
	C106.824722,489.278473 107.779198,487.569305 109.898689,485.993622 
	C117.868782,480.068420 125.526779,473.721039 133.644394,468.000916 
	C136.088470,466.278656 138.157654,464.299377 140.588013,462.079926 
	C152.055984,462.815247 163.122574,462.329987 174.174973,462.607880 
	C176.111069,462.656555 178.208084,462.475769 179.829163,464.719269 
z"/>
<path fill="#E7103C" opacity="1.000000" stroke="none" 
	d="
M19.978916,116.357010 
	C22.413868,115.838326 24.248589,114.827843 26.013123,113.460236 
	C44.031036,99.495461 62.069580,85.557175 80.143723,71.665298 
	C81.654030,70.504471 83.165955,68.852379 85.761795,69.976959 
	C87.399834,72.963211 84.837547,74.057930 83.447884,75.388786 
	C73.996391,84.440315 65.854477,94.404137 60.516216,106.494232 
	C59.033905,109.851372 57.844559,113.297371 56.565994,116.721756 
	C55.825729,118.704407 55.559288,120.978577 53.229263,122.433670 
	C46.847374,125.436096 42.152786,130.180115 36.909721,134.144012 
	C32.269516,137.652130 27.548510,141.061996 23.026180,144.730682 
	C21.466206,145.996185 19.746607,147.201599 17.423948,145.257751 
	C16.546642,135.428284 17.168924,125.979172 19.978916,116.357010 
z"/>
<path fill="#E7103C" opacity="1.000000" stroke="none" 
	d="
M179.531860,17.101057 
	C178.570084,22.152374 173.744766,23.788401 170.291962,26.651327 
	C163.295410,32.452595 155.880203,37.748722 148.641647,43.258427 
	C146.790009,44.667816 144.967529,46.109001 144.127960,48.795139 
	C144.293396,52.170982 141.930893,52.218071 140.048126,52.294128 
	C123.534851,52.961258 108.619560,58.511192 94.582878,66.875763 
	C93.072281,67.775940 91.500031,69.053787 89.292213,67.440826 
	C89.712708,64.107635 92.057518,62.503220 94.301254,60.778538 
	C111.499512,47.558788 128.679474,34.315239 145.877808,21.095596 
	C147.074509,20.175739 148.245056,19.275459 148.886475,17.479139 
	C159.019882,17.122879 169.043640,17.079338 179.531860,17.101057 
z"/>
<path fill="#C50C60" opacity="1.000000" stroke="none" 
	d="
M267.182709,49.285484 
	C268.444794,44.976608 272.140411,43.367283 275.039886,41.052933 
	C283.419708,34.364201 291.982361,27.904177 300.490112,21.376383 
	C301.805878,20.366823 303.191284,19.455397 303.885925,17.479084 
	C315.353119,17.123779 326.710846,17.080770 338.533203,17.102100 
	C341.456818,19.510796 340.092621,21.213778 338.106903,22.912289 
	C331.277771,28.753727 323.872620,33.856880 316.898163,39.506725 
	C312.179108,43.329498 306.701965,46.214302 302.286041,51.040600 
	C291.881104,51.805733 281.894318,51.472271 271.910492,51.341599 
	C270.267975,51.320103 268.537476,51.243015 267.182709,49.285484 
z"/>
<path fill="#BB0B6B" opacity="1.000000" stroke="none" 
	d="
M17.440496,306.276184 
	C17.122019,294.306549 17.077309,282.616821 17.099590,270.462494 
	C25.296778,261.320160 35.390839,255.070847 44.684330,247.836517 
	C46.672249,246.289062 48.780811,247.237350 50.736176,249.173325 
	C51.981899,260.410950 51.479248,271.275391 51.165386,282.563141 
	C49.943146,286.230194 46.656895,287.299072 44.334400,289.222290 
	C37.435276,294.935455 30.222136,300.278320 23.072437,305.688354 
	C21.459421,306.908875 19.802166,308.138000 17.440496,306.276184 
z"/>
<path fill="#B10A75" opacity="1.000000" stroke="none" 
	d="
M384.677368,32.937874 
	C389.528839,36.419971 392.900116,41.204369 397.928955,44.653008 
	C398.064575,46.458660 397.969788,47.900249 396.527252,48.891632 
	C388.771393,54.221767 381.945404,60.799740 373.718384,66.028992 
	C373.333191,66.688324 373.128845,67.073158 372.605621,68.027344 
	C371.465118,69.345734 370.996429,70.418884 369.736359,71.224319 
	C363.848877,74.710411 359.170105,79.208954 353.995300,83.053993 
	C350.260590,85.829010 346.601868,88.704170 342.806213,91.402840 
	C340.311584,93.176468 337.977417,93.381035 335.356445,91.004120 
	C334.063934,84.385048 334.510773,78.102562 334.843201,71.417328 
	C335.280518,68.115318 338.246735,68.004341 339.932037,66.677727 
	C353.364716,56.103958 366.825317,45.559582 380.490479,35.283386 
	C381.678009,34.390369 382.815369,33.385048 384.677368,32.937874 
z"/>
<path fill="#C50C60" opacity="1.000000" stroke="none" 
	d="
M49.287552,248.804260 
	C45.451462,249.349274 43.314274,251.842529 40.845825,253.719208 
	C34.788258,258.324493 28.789742,263.007568 22.779713,267.675171 
	C21.314600,268.813019 19.745064,269.679962 17.521130,269.954224 
	C17.121428,258.640656 17.076271,247.283417 17.098742,235.461639 
	C25.160149,226.283157 35.202633,220.099304 44.469742,212.963135 
	C46.665230,211.272491 48.820889,212.158508 50.802246,214.395203 
	C51.961483,224.723328 51.438038,234.657639 51.299782,244.585968 
	C51.279083,246.072067 51.076111,247.587540 49.287552,248.804260 
z"/>
<path fill="#7403B6" opacity="1.000000" stroke="none" 
	d="
M496.564789,157.716873 
	C496.877716,169.028229 496.922302,180.051193 496.900024,191.538818 
	C491.616608,199.039001 483.942291,203.197556 477.353973,208.626221 
	C475.444550,210.199539 473.438660,211.655365 471.481201,213.170212 
	C468.865295,215.194641 466.153381,215.694427 463.265198,212.840424 
	C462.054840,201.897980 462.467529,191.332214 462.896484,180.345474 
	C463.975677,176.863876 467.259277,176.550018 469.330902,174.761398 
	C476.112335,168.906342 483.360474,163.605713 490.587952,158.301422 
	C492.276611,157.062088 494.037262,155.355652 496.564789,157.716873 
z"/>
<path fill="#BD0B68" opacity="1.000000" stroke="none" 
	d="
M303.176880,49.282963 
	C304.511658,44.549469 308.605988,42.813465 311.768433,40.264339 
	C318.886017,34.527138 326.315887,29.178976 333.537201,23.567640 
	C335.596588,21.967392 338.019135,20.598545 338.932617,17.497513 
	C349.327057,16.332699 359.295471,17.589018 368.860352,22.592087 
	C370.183838,24.618452 369.681030,26.111557 368.219208,27.259819 
	C358.325684,35.031101 348.408234,42.772457 338.289276,50.250027 
	C337.772797,50.631710 337.010864,50.549294 335.944946,50.799706 
	C325.982300,52.016216 316.418488,51.443474 306.861328,51.257027 
	C305.534363,51.231136 304.227539,50.921806 303.176880,49.282963 
z"/>
<path fill="#7D04AC" opacity="1.000000" stroke="none" 
	d="
M496.898438,157.596680 
	C492.015289,158.954559 488.973114,162.733643 485.268585,165.405228 
	C480.174286,169.079086 475.325165,173.093063 470.373810,176.964905 
	C469.041840,178.006454 467.561646,178.696365 465.521393,178.961609 
	C462.275818,178.225754 462.769958,175.722870 462.595886,173.690475 
	C461.848206,164.960709 461.514893,164.550446 453.136383,163.356232 
	C451.660187,163.145813 450.110382,163.102997 449.095673,161.230194 
	C452.282959,155.650482 457.685425,152.858322 462.322113,149.262024 
	C470.262329,143.103439 477.848511,136.455185 486.782806,131.065613 
	C492.551605,138.896408 495.592529,147.728882 496.898438,157.596680 
z"/>
<path fill="#B10A75" opacity="1.000000" stroke="none" 
	d="
M17.100471,306.461090 
	C24.067053,302.969452 29.179581,297.412811 35.238575,293.193634 
	C39.550430,290.191071 43.237362,286.293915 48.503647,284.090729 
	C51.708164,285.053589 51.333786,287.647461 51.372437,289.838013 
	C51.520267,298.216949 51.689869,306.600006 51.195297,315.415497 
	C48.589619,319.542847 44.894440,321.989441 41.512169,324.775604 
	C35.630386,329.620728 29.429518,334.051086 23.394102,338.696350 
	C21.740068,339.969391 19.958059,341.637238 17.436152,339.283447 
	C17.122889,328.304932 17.078552,317.615387 17.100471,306.461090 
z"/>
<path fill="#7403B6" opacity="1.000000" stroke="none" 
	d="
M139.897156,463.757629 
	C139.168686,466.880188 137.007782,468.430206 134.911545,470.076172 
	C125.934029,477.125336 116.466431,483.548798 107.720108,491.508118 
	C97.493591,489.136078 88.324638,484.513062 79.073227,479.351837 
	C78.243652,476.313660 80.285004,475.181580 82.012901,473.917572 
	C90.337173,467.827942 98.118668,461.005219 107.233215,455.327087 
	C111.818466,455.124512 115.509003,457.170776 119.444199,458.267120 
	C124.530876,459.684326 129.705505,460.633575 134.902924,461.498352 
	C136.651657,461.789307 138.592697,461.594025 139.897156,463.757629 
z"/>
<path fill="#EF1133" opacity="1.000000" stroke="none" 
	d="
M128.521927,17.942863 
	C127.403061,23.008768 122.649773,25.057064 118.946869,27.934885 
	C90.473610,50.063747 61.871853,72.027321 33.291557,94.018257 
	C31.059776,95.735481 28.815544,97.513824 25.519596,97.974297 
	C27.713278,92.372299 29.765554,86.480461 33.581596,81.128029 
	C48.471313,66.878357 65.379959,55.704975 81.239891,43.221550 
	C90.965782,35.566254 100.249290,27.251995 111.705154,21.375263 
	C117.151405,19.048803 122.517548,18.007650 128.521927,17.942863 
z"/>
<path fill="#DF0F44" opacity="1.000000" stroke="none" 
	d="
M17.097927,145.457428 
	C24.137384,141.794312 29.432419,136.236038 35.605087,131.914810 
	C40.828320,128.258240 45.222275,123.387474 51.754177,121.075745 
	C54.231316,122.240799 54.328705,124.245384 53.921104,126.228455 
	C52.123589,134.973801 52.685192,143.957870 51.053764,153.135498 
	C42.039402,161.014023 32.848091,168.128159 23.404211,174.910599 
	C21.723751,176.117508 19.861326,177.676895 17.431446,175.282654 
	C17.120558,165.303741 17.074461,155.612915 17.097927,145.457428 
z"/>
<path fill="#CE0D56" opacity="1.000000" stroke="none" 
	d="
M49.287178,213.805359 
	C44.021072,214.957153 40.974312,218.729141 37.269516,221.402267 
	C32.175758,225.077576 27.325804,229.090912 22.374100,232.962875 
	C21.041954,234.004517 19.562239,234.695374 17.520405,234.953766 
	C17.120974,224.973663 17.075581,214.950226 17.098068,204.462341 
	C20.613071,197.926620 26.784197,194.799194 31.868814,190.518829 
	C35.519657,187.445435 39.559872,184.835800 43.264954,181.817886 
	C45.880177,179.687698 48.234360,179.544037 50.804398,182.403931 
	C51.938427,191.730865 51.449024,200.664825 51.300026,209.592590 
	C51.275238,211.077789 51.076267,212.591995 49.287178,213.805359 
z"/>
<path fill="#6B02BF" opacity="1.000000" stroke="none" 
	d="
M464.713074,213.195740 
	C467.790466,212.841202 469.686646,211.310074 471.750183,209.855850 
	C479.972900,204.061203 487.045563,196.685226 496.488068,192.052032 
	C496.878052,202.027512 496.922974,212.051559 496.900391,222.540268 
	C493.196106,228.087860 487.830383,231.208862 483.082855,235.014069 
	C479.087402,238.216537 474.983154,241.290741 470.858307,244.332382 
	C468.241180,246.262268 465.774506,246.510620 463.202271,243.623749 
	C462.060455,234.623932 462.555817,226.014603 462.699921,217.411911 
	C462.724823,215.925720 462.923248,214.410355 464.713074,213.195740 
z"/>
<path fill="#6201C8" opacity="1.000000" stroke="none" 
	d="
M464.700134,244.226685 
	C473.239502,241.279404 478.571198,234.571396 485.406830,230.043457 
	C488.959808,227.689926 491.804169,224.251953 496.485352,223.053253 
	C496.878204,232.695541 496.923523,242.386139 496.900879,252.541565 
	C488.154053,257.587219 481.231628,264.574799 473.302399,270.183197 
	C470.898895,271.883179 468.902374,274.218842 465.512268,274.955383 
	C463.498627,274.433960 462.916138,273.075012 462.825897,271.506256 
	C462.356903,263.352295 462.263245,255.195938 462.891968,247.044373 
	C462.971527,246.012924 463.445679,245.136871 464.700134,244.226685 
z"/>
<path fill="#B60A70" opacity="1.000000" stroke="none" 
	d="
M336.586487,49.471977 
	C344.418549,41.453732 353.639587,35.981876 361.775909,29.160643 
	C364.060211,27.245546 366.368164,25.358620 368.858276,23.177006 
	C375.272491,24.359774 379.682739,28.854420 384.888794,32.571602 
	C383.397125,37.944111 378.481781,39.675827 374.831116,42.594208 
	C364.248199,51.054321 353.434998,59.226810 342.690552,67.484077 
	C341.252625,68.589149 339.741699,69.635841 337.514709,69.949280 
	C336.377136,69.704384 335.519562,69.278198 335.390686,68.453522 
	C334.413330,62.197979 333.259674,55.916492 336.586487,49.471977 
z"/>
<path fill="#7D04AC" opacity="1.000000" stroke="none" 
	d="
M107.200638,456.530365 
	C98.779633,465.323120 88.852661,471.657867 79.181091,478.866577 
	C70.758141,474.772217 63.584770,469.227966 57.040867,462.350525 
	C56.886585,460.519684 57.059467,459.001099 58.382854,458.025543 
	C66.340981,452.159027 73.588371,445.317474 82.689636,440.389526 
	C84.922897,439.907349 86.211159,441.172546 87.501335,442.109283 
	C92.754738,445.923462 98.179932,449.430664 104.013161,452.305389 
	C105.618484,453.096558 107.420036,453.880310 107.200638,456.530365 
z"/>
<path fill="#AA097D" opacity="1.000000" stroke="none" 
	d="
M17.101639,339.459595 
	C20.547140,338.653351 22.644756,336.117828 25.148746,334.296997 
	C32.883080,328.673065 39.911613,322.097107 48.513454,317.103271 
	C51.499199,317.915588 51.309669,320.289368 51.354374,322.354431 
	C51.518242,329.923584 51.719280,337.497223 51.129265,345.497803 
	C49.694164,348.970062 46.493820,349.945343 44.195843,351.904633 
	C37.797157,357.360352 31.001577,362.338470 24.239857,367.338654 
	C22.410355,368.691528 20.392397,370.936523 17.435223,368.285828 
	C17.123306,358.638062 17.079679,349.281403 17.101639,339.459595 
z"/>
<path fill="#9A078E" opacity="1.000000" stroke="none" 
	d="
M448.901306,92.590195 
	C445.070526,98.619987 438.808777,101.716469 433.716644,106.160454 
	C430.726105,108.770363 427.540375,111.156647 424.200623,113.880142 
	C423.069702,114.676857 422.020233,115.051102 421.158142,114.406258 
	C413.615692,108.764565 406.349365,102.830414 401.376160,94.283653 
	C402.466309,91.004440 405.341797,90.066078 407.424561,88.281921 
	C412.293854,84.110771 417.677917,80.604027 422.605774,76.508446 
	C424.268646,75.126457 426.021667,73.927780 428.683960,73.915985 
	C435.620880,80.023994 442.189575,86.157845 448.901306,92.590195 
z"/>
<path fill="#D60E4E" opacity="1.000000" stroke="none" 
	d="
M49.301849,181.775742 
	C42.015976,184.526947 37.293087,190.079117 31.467428,194.040649 
	C26.841013,197.186707 23.034168,201.478699 17.495394,203.905670 
	C17.120184,194.639816 17.074419,185.281754 17.097654,175.459137 
	C23.396545,173.477127 27.401003,168.530640 32.369259,165.079529 
	C37.631310,161.424347 42.148083,156.701355 48.487556,154.043793 
	C50.497227,154.568939 51.071793,155.926773 51.173908,157.494904 
	C51.639706,164.647781 51.723797,171.803284 51.107990,178.953583 
	C51.019207,179.984451 50.553375,180.860626 49.301849,181.775742 
z"/>
<path fill="#8705A1" opacity="1.000000" stroke="none" 
	d="
M83.299744,441.627808 
	C74.565964,448.531494 66.013924,455.101562 57.176746,461.859802 
	C49.952412,456.138733 43.954075,449.400696 38.942833,441.390076 
	C39.019173,439.844543 39.468956,438.756470 40.403912,438.014435 
	C47.636703,432.274475 54.753624,426.378571 62.498703,421.318207 
	C63.041401,420.963654 63.759174,420.943268 64.746704,420.646545 
	C66.829445,420.320862 67.985794,421.239319 68.889053,422.496796 
	C72.677612,427.770905 77.267159,432.323334 81.759323,436.970032 
	C82.883331,438.132629 84.212128,439.337067 83.299744,441.627808 
z"/>
<path fill="#900698" opacity="1.000000" stroke="none" 
	d="
M65.370522,421.652649 
	C56.618294,428.295715 48.758179,435.463928 39.222153,440.937256 
	C33.101681,434.484528 30.048752,426.391022 26.226593,418.348022 
	C27.562992,413.698059 31.711267,412.103363 34.736858,409.452240 
	C39.059124,405.664856 43.952263,402.576477 48.389648,398.911285 
	C49.987869,397.591248 51.812309,396.990509 54.289078,397.533630 
	C57.824360,399.982971 66.074570,417.836395 65.370522,421.652649 
z"/>
<path fill="#A10886" opacity="1.000000" stroke="none" 
	d="
M17.101736,368.459106 
	C21.871960,367.233765 24.781822,363.559174 28.425570,361.071106 
	C35.079361,356.527802 40.581944,350.361389 48.485497,347.042267 
	C51.770424,348.028931 51.321777,350.659515 51.373539,352.851013 
	C51.517986,358.966522 51.525578,365.084198 52.042908,371.610474 
	C50.282063,375.210236 46.999416,376.653534 44.398415,378.821869 
	C38.280552,383.922089 31.823689,388.598480 25.485209,393.421356 
	C23.792257,394.709564 22.047808,396.276306 19.440739,394.277588 
	C16.694498,385.789062 16.883450,377.354736 17.101736,368.459106 
z"/>
<path fill="#9A078E" opacity="1.000000" stroke="none" 
	d="
M19.105417,394.397491 
	C27.571814,390.187012 33.779755,383.304474 41.236622,378.162720 
	C43.818539,376.382385 46.132195,374.223297 49.501274,373.091919 
	C51.347088,373.335236 51.988262,374.438019 52.143154,375.832825 
	C52.870239,382.380157 54.248920,388.805481 55.702152,395.217926 
	C55.977123,396.431244 55.724251,397.490509 54.499477,398.670319 
	C46.933090,401.898315 41.721230,407.700348 35.485218,412.040741 
	C32.635838,414.023987 30.235107,416.670044 26.496521,417.905884 
	C22.904341,410.537567 20.745293,402.737885 19.105417,394.397491 
z"/>
<path fill="#F21130" opacity="1.000000" stroke="none" 
	d="
M111.605957,21.100285 
	C107.057007,27.843109 99.771118,31.786005 93.440002,36.792355 
	C76.144257,50.469006 58.559975,63.781090 41.065002,77.205017 
	C39.099049,78.713493 37.090038,80.225189 34.235577,80.881409 
	C36.253746,73.984779 41.043713,68.368469 45.710506,63.137302 
	C55.897652,51.718197 66.883163,41.055164 80.638496,33.615852 
	C90.429237,28.320711 100.509819,23.985300 111.605957,21.100285 
z"/>
<path fill="#A10886" opacity="1.000000" stroke="none" 
	d="
M428.904419,73.586960 
	C421.037537,81.552567 412.135254,88.066582 402.520721,94.307007 
	C400.854523,95.405937 399.596741,95.114220 398.526825,94.148407 
	C393.723419,89.812416 389.201355,85.175575 384.374207,80.862457 
	C383.742493,80.298027 383.595306,79.418503 383.665161,78.190559 
	C391.577393,69.593880 400.422699,62.662647 410.722473,57.064705 
	C417.268860,62.080357 422.192841,68.571022 428.904419,73.586960 
z"/>
<path fill="#AA097D" opacity="1.000000" stroke="none" 
	d="
M410.887360,56.682060 
	C410.529755,59.081409 408.785370,60.156712 407.223022,61.351757 
	C400.012878,66.866844 392.777283,72.348686 385.215576,77.947021 
	C384.185730,78.529480 383.263641,79.011406 382.618286,78.528221 
	C378.260468,75.265678 373.698608,72.160522 371.797363,66.436356 
	C372.362915,64.576569 373.344849,63.519836 374.577209,62.601330 
	C382.255096,56.878895 389.443634,50.506931 397.816467,45.135635 
	C402.714600,48.317852 405.742126,53.420288 410.887360,56.682060 
z"/>
<path fill="#000000" opacity="1.000000" stroke="none" 
	d="
M54.448307,399.152405 
	C52.149361,390.699371 49.488083,382.562439 49.896591,373.450317 
	C48.618504,364.672180 49.123383,356.286438 48.898224,347.458313 
	C48.876694,337.303711 48.920361,327.614471 48.898422,317.460114 
	C48.877159,306.305573 48.921505,295.616180 48.899616,284.462036 
	C48.877968,272.639862 48.922550,261.282410 48.900124,249.460114 
	C48.878265,237.638458 48.923412,226.281631 48.900890,214.460083 
	C48.878677,203.639099 48.924137,193.282837 48.901684,182.462128 
	C48.879494,172.972900 48.925217,163.948090 48.901886,154.458618 
	C49.709763,143.272491 49.910759,132.483765 52.071980,121.462219 
	C56.182228,110.297127 59.995319,99.420685 66.996773,90.107788 
	C72.428276,82.883133 78.326721,76.078247 85.874344,70.430153 
	C86.955406,69.318634 87.874626,68.502846 88.916115,67.402832 
	C96.704582,62.920341 104.119095,58.213856 112.415512,55.273193 
	C122.471886,51.708721 132.780685,49.507259 143.780090,49.471832 
	C157.380280,49.074749 170.723129,49.018578 184.530365,48.897778 
	C199.018478,48.876034 213.042221,48.918922 227.530365,48.897423 
	C240.685730,48.876053 253.376709,48.919079 266.532227,48.897629 
	C278.687195,48.876099 290.377563,48.919041 302.532593,48.897629 
	C314.007935,48.896236 325.018646,48.959206 336.493256,49.068115 
	C336.983948,55.765774 337.010712,62.417492 337.102234,69.533638 
	C337.124115,76.687988 337.081238,83.377922 337.102661,90.532288 
	C338.735474,92.397636 339.445190,94.195168 339.376190,96.249596 
	C339.165955,102.507050 340.105194,108.647911 341.214813,115.166000 
	C344.892822,123.920982 349.126129,131.934525 355.010803,139.395508 
	C360.146545,144.086823 365.222992,148.275681 371.135773,151.308624 
	C372.854340,152.190140 374.009705,153.452835 374.784363,155.558807 
	C383.339325,160.295975 392.343933,161.315964 401.611786,161.007477 
	C403.430176,160.946930 405.251556,160.975891 407.535645,160.898529 
	C421.357574,160.877136 434.715454,160.920807 448.538208,160.898849 
	C451.629883,160.888092 454.256561,160.982330 456.883514,160.990417 
	C464.490692,161.013824 464.543732,160.997330 464.967529,168.718002 
	C465.138489,171.832199 465.020966,174.962234 465.100952,178.545593 
	C465.122559,190.029312 465.077942,201.052490 465.100220,212.540619 
	C465.122253,223.029388 465.077393,233.053207 465.100037,243.542053 
	C465.122101,254.029892 465.076630,264.052704 465.099182,274.540222 
	C465.111389,304.157776 465.229858,333.312347 464.940979,362.462830 
	C464.734741,383.274719 460.954559,403.310211 448.974243,420.910919 
	C434.533508,442.126465 415.101898,456.332428 389.798676,462.037781 
	C378.947815,464.484344 367.943268,464.998810 356.881744,465.001099 
	C311.232056,465.010590 265.582367,465.024902 219.468140,465.102081 
	C206.313416,465.123901 193.623199,465.081116 180.468475,465.102570 
	C171.702667,465.111603 163.401382,465.055695 155.100082,465.001373 
	C150.333801,464.970184 145.543991,465.289856 140.432159,464.102844 
	C128.735001,464.176636 118.208427,460.844849 107.415894,456.944305 
	C99.031212,452.380615 90.710068,448.383331 83.421066,442.109283 
	C77.380363,435.302155 70.299385,429.829620 65.352234,422.044403 
	C61.633545,414.369415 56.749802,407.522705 54.448307,399.152405 
z"/>
<path fill="#000000" opacity="1.000000" stroke="none" 
	d="
M371.756287,65.993767 
	C376.090912,69.983826 380.193756,73.861748 384.588501,77.895645 
	C390.477173,83.401474 396.073944,88.751343 401.917297,94.297218 
	C404.823151,95.692589 406.432831,98.102127 408.485779,99.997047 
	C413.457520,104.586021 418.398956,109.207832 423.655701,113.966599 
	C427.923248,119.619080 433.951630,123.028885 439.332611,129.037567 
	C427.814362,129.037567 417.371643,129.037567 406.464142,129.101990 
	C400.508942,132.776382 395.018127,130.296509 389.723022,128.815674 
	C385.467346,127.625504 381.595276,125.285393 378.122101,121.738159 
	C371.651337,115.302032 367.271423,108.353310 367.718079,99.198975 
	C367.758545,98.369545 367.326752,97.605202 366.877258,96.411789 
	C366.373077,89.573868 366.488312,83.151276 366.589142,76.731087 
	C366.622284,74.621429 366.580933,72.424217 368.533020,70.361359 
	C368.963196,68.157204 369.093384,66.319160 369.551727,64.266907 
	C370.153015,64.234062 370.406769,64.439331 370.792969,64.860947 
	C371.138000,65.329460 371.331268,65.605545 371.756287,65.993767 
z"/>
<path fill="#980790" opacity="1.000000" stroke="none" 
	d="
M378.674866,119.913322 
	C386.498901,126.490051 395.616730,128.349731 405.572479,129.101562 
	C404.551086,133.030136 400.836121,134.621094 397.943878,136.956406 
	C391.775391,141.937119 385.360962,146.612396 379.082733,151.458740 
	C377.664490,152.553513 375.963593,153.401749 375.118896,155.526672 
	C367.082092,152.588913 360.112854,147.948349 354.091492,141.402405 
	C353.130676,139.178101 353.620209,137.554138 355.149200,136.230957 
	C361.492859,130.741226 368.296387,125.843544 375.034210,120.863144 
	C375.978882,120.164871 377.121613,119.917198 378.674866,119.913322 
z"/>
<path fill="#AA097D" opacity="1.000000" stroke="none" 
	d="
M368.485718,70.044830 
	C368.876007,78.687431 368.919006,87.379616 368.897919,96.536690 
	C368.157776,99.112564 366.917267,100.720627 365.091614,102.066307 
	C358.699280,106.778053 352.511169,111.760170 346.216949,116.602600 
	C344.494659,117.927658 342.719421,119.325874 340.178009,117.280701 
	C336.134155,108.989288 337.038025,100.405922 337.101349,91.461067 
	C339.800293,90.800346 341.755737,89.227394 343.717194,87.711746 
	C350.126404,82.759163 356.501984,77.763069 362.914368,72.814568 
	C364.482971,71.604050 366.089233,70.408607 368.485718,70.044830 
z"/>
<path fill="#AA097D" opacity="1.000000" stroke="none" 
	d="
M370.778809,64.874702 
	C370.658051,64.878235 370.371338,64.703094 369.982269,64.290329 
	C370.138733,64.250626 370.383057,64.465065 370.778809,64.874702 
z"/>
<path fill="#8305A6" opacity="1.000000" stroke="none" 
	d="
M207.172119,349.267212 
	C204.652084,346.910767 202.418182,344.779510 200.038055,342.348450 
	C199.841461,340.303680 200.231812,338.717621 201.712753,337.626740 
	C209.588181,331.825531 216.639023,324.882111 225.729980,320.168640 
	C226.008514,319.540161 226.183014,319.267395 226.717499,318.984558 
	C230.007172,318.165558 231.829971,315.627441 233.953415,313.724213 
	C251.385071,298.100159 270.597107,284.749451 289.003723,270.376526 
	C310.358429,253.701614 331.838226,237.185425 353.378113,220.749344 
	C355.353485,219.242020 357.180115,216.669678 360.577759,218.746948 
	C361.542175,222.436752 359.861908,225.189240 357.854126,227.538879 
	C353.880981,232.188431 349.618347,236.592545 345.431854,241.057312 
	C339.880524,246.977676 334.287476,252.858963 328.413391,258.899475 
	C320.432220,263.778290 314.480682,270.613281 307.348694,276.068298 
	C283.064026,294.642853 258.829437,313.286041 234.636368,331.981567 
	C227.798874,337.265320 220.935654,342.515991 214.063904,347.753937 
	C212.206100,349.170044 210.301041,351.391754 207.172119,349.267212 
z"/>
<path fill="#8705A1" opacity="1.000000" stroke="none" 
	d="
M360.898346,218.569107 
	C354.153870,222.205353 348.847015,227.361267 343.063141,231.786057 
	C306.328735,259.888672 269.746918,288.190704 233.089157,316.393646 
	C231.437988,317.664001 229.984146,319.535187 227.212662,319.011597 
	C243.395798,301.342743 259.842224,283.792938 276.586914,266.100250 
	C283.454529,261.926971 288.396057,255.951767 294.494476,251.318359 
	C313.171997,237.127747 331.722168,222.767975 350.292664,208.436081 
	C352.476288,206.750885 354.585327,205.206573 357.817444,206.758179 
	C361.120575,210.159058 361.259949,214.092484 360.898346,218.569107 
z"/>
<path fill="#8004A9" opacity="1.000000" stroke="none" 
	d="
M206.943802,349.387299 
	C215.292313,345.129517 221.827118,338.567413 229.082199,333.074127 
	C253.338974,314.707825 277.324127,295.982910 301.427582,277.413818 
	C308.013855,272.339813 314.644196,267.322937 321.267090,262.296692 
	C323.119049,260.891174 324.937531,259.393524 327.748413,259.078491 
	C314.648041,273.612152 301.181671,288.182465 287.414429,302.897095 
	C283.347473,304.997772 280.484344,308.095520 277.337585,310.825378 
	C259.004913,326.729126 239.106674,340.633728 220.125916,355.708771 
	C218.775101,356.781616 217.148834,357.115204 215.331390,357.956116 
	C211.999130,355.597717 208.998917,353.145660 206.943802,349.387299 
z"/>
<path fill="#8B059D" opacity="1.000000" stroke="none" 
	d="
M357.966766,206.640839 
	C349.561981,210.567749 343.181000,217.305664 335.924927,222.751312 
	C318.797272,235.605530 301.996552,248.894669 285.003784,261.929901 
	C282.796570,263.623077 280.577301,265.500488 277.251892,265.920685 
	C285.724548,255.485611 295.257660,245.656448 304.707855,235.744751 
	C313.816895,226.190887 322.608154,216.333145 331.754822,206.816315 
	C339.797211,198.448471 349.037994,198.418243 357.966766,206.640839 
z"/>
<path fill="#A10886" opacity="1.000000" stroke="none" 
	d="
M339.933044,117.423126 
	C345.732361,115.117538 349.643036,110.373878 354.474670,106.975639 
	C359.064575,103.747421 363.153168,99.813828 368.514587,97.109055 
	C370.751251,101.628517 370.084076,106.982811 373.059967,111.352768 
	C374.894073,114.046066 376.306396,117.027191 378.896606,119.584366 
	C372.955505,126.546608 364.971832,130.880798 358.286591,136.806976 
	C356.930908,138.008728 355.645874,139.290161 354.137695,140.818481 
	C347.337311,134.506744 342.887421,126.616516 339.933044,117.423126 
z"/>
<path fill="#900698" opacity="1.000000" stroke="none" 
	d="
M196.678207,290.877441 
	C202.634308,296.707397 208.222748,302.526245 213.959290,308.646973 
	C214.108078,310.329956 213.774277,311.485565 212.589432,312.431702 
	C206.096390,317.616455 199.379715,322.510315 192.857346,327.656860 
	C191.687012,328.580353 190.253708,329.135315 188.316498,329.085388 
	C181.483200,324.139435 177.113251,317.149872 171.040131,311.351044 
	C170.836670,309.289490 171.415176,307.921997 172.860306,306.747009 
	C179.038254,301.723846 185.455704,297.014893 191.761154,292.159576 
	C193.096512,291.131317 194.485245,290.209229 196.678207,290.877441 
z"/>
<path fill="#7D04AC" opacity="1.000000" stroke="none" 
	d="
M215.196411,358.363922 
	C215.918472,354.904236 218.798126,353.512726 221.087997,351.741180 
	C240.632919,336.620148 260.272614,321.621521 279.889435,306.593506 
	C281.860443,305.083557 283.766968,303.432678 286.747620,303.078064 
	C282.591461,308.466583 277.434570,313.300964 272.721741,318.564026 
	C261.553101,331.036621 249.893585,343.074188 238.294861,355.155457 
	C231.515564,362.216766 224.256180,363.187836 215.196411,358.363922 
z"/>
<path fill="#980790" opacity="1.000000" stroke="none" 
	d="
M196.902924,290.590088 
	C188.521667,297.487244 179.997467,304.085907 171.182312,310.866821 
	C165.825439,307.400543 162.717239,301.895660 158.086380,297.397247 
	C157.071030,295.044830 157.972412,293.707581 159.541229,292.377228 
	C165.900452,286.984680 172.760880,282.241974 179.246902,277.017700 
	C180.586670,275.938599 181.968521,275.937347 183.781311,276.753113 
	C188.324417,281.397095 192.542206,285.844360 196.902924,290.590088 
z"/>
<path fill="#8705A1" opacity="1.000000" stroke="none" 
	d="
M188.098587,329.410339 
	C195.721252,321.539642 204.542480,315.324127 213.795319,309.105591 
	C218.464508,311.972504 220.203506,317.649261 225.613495,319.927063 
	C224.772995,324.402100 220.520218,326.000763 217.423004,328.590240 
	C211.949402,333.166595 206.133896,337.334045 200.176651,341.860657 
	C195.101654,338.792053 192.495621,333.473480 188.098587,329.410339 
z"/>
<path fill="#A10886" opacity="1.000000" stroke="none" 
	d="
M183.956604,276.646362 
	C175.083450,282.908539 166.762817,289.789673 158.149826,296.828369 
	C152.995682,292.614471 151.224792,284.879547 153.736984,278.730652 
	C156.426529,272.147675 161.082779,269.407257 168.104065,268.888855 
	C174.995163,268.380066 179.705765,271.478729 183.956604,276.646362 
z"/>
</svg>