<svg version="1.1" id="Layer_1" xmlns="http://www.w3.org/2000/svg" xmlns:xlink="http://www.w3.org/1999/xlink" x="0px" y="0px"
	 width="100%" viewBox="0 0 512 512" enable-background="new 0 0 512 512" xml:space="preserve">
<path fill="#1A3852" opacity="1.000000" stroke="none" 
	d="
M116.679619,1.222019 
	C133.020889,1.000000 149.041794,1.000000 165.531342,1.000000 
	C170.812286,2.556420 172.470703,6.319501 172.931595,10.915880 
	C173.494217,16.526859 174.348083,22.101458 175.017502,27.699024 
	C175.116180,28.524073 175.136688,29.372534 175.478928,30.135500 
	C177.467911,34.569469 192.864731,38.639416 196.711609,35.618019 
	C200.886551,32.338936 205.023315,29.007307 209.163239,25.681734 
	C212.541809,22.967728 216.244003,21.345758 221.058441,22.795555 
	C227.336716,25.970757 231.747314,30.841633 235.961700,35.699421 
	C240.182709,40.564846 244.103012,41.379921 250.199661,38.874752 
	C272.864624,29.561543 296.726746,25.764187 321.079895,27.139778 
	C362.122742,29.458092 398.439056,43.717617 429.246063,71.594116 
	C452.792938,92.901115 469.741516,118.330772 479.134003,148.580246 
	C491.087738,187.078506 490.155273,225.448471 475.582794,263.098450 
	C472.797516,270.294647 473.162079,274.985962 479.135895,279.902863 
	C483.182587,283.233521 487.293182,286.811798 489.987244,292.019989 
	C492.405884,296.433777 491.219696,300.095673 488.766541,303.562347 
	C485.203064,308.597992 481.210388,313.302948 477.295013,318.058594 
	C475.463745,320.282867 475.067505,322.372894 476.321747,324.921021 
	C477.203705,326.712830 478.373718,328.494690 478.653717,330.428314 
	C479.741913,337.943359 484.780121,339.757690 491.363525,340.004303 
	C496.010895,340.178406 500.648438,340.851379 505.211212,341.815186 
	C509.294189,342.677643 512.279419,344.752350 512.780029,349.689667 
	C513.000000,365.020905 513.000000,380.041779 513.000000,395.531342 
	C512.189148,402.450043 507.488281,404.161377 502.064240,404.836945 
	C496.618927,405.515137 491.159241,406.073975 485.737488,406.938660 
	C484.591064,407.121490 483.204559,406.923920 482.416901,407.797424 
	C479.549438,410.977509 479.199799,415.396729 477.167419,418.983398 
	C474.824982,423.117218 475.770416,426.349640 478.790253,429.788818 
	C482.294403,433.779541 485.675842,437.922211 488.692627,442.317322 
	C492.590424,447.996033 492.744324,452.720978 488.168732,457.805817 
	C479.036224,467.954712 469.264252,477.513641 459.265625,486.807709 
	C454.986603,490.785156 450.567719,490.580536 445.080383,486.987335 
	C439.919128,483.607666 435.344910,479.447479 430.502808,475.646729 
	C428.099213,473.760101 425.945984,473.268890 423.220856,474.727539 
	C420.875153,475.983124 418.405640,477.156372 415.816864,477.687469 
	C411.019409,478.671600 409.423401,481.837830 409.059753,486.237091 
	C408.621368,491.541077 408.012787,496.834656 406.970581,502.057129 
	C405.523315,509.309540 402.261871,511.980927 394.960052,511.993378 
	C381.804291,512.015869 368.648499,512.009033 355.492706,511.996368 
	C347.661621,511.988861 344.326263,509.233612 343.258606,501.323578 
	C342.502350,495.720825 341.507050,490.142639 341.033234,484.509521 
	C340.780182,481.500854 339.491730,479.763519 336.702087,478.504700 
	C323.876282,472.717133 323.918732,472.661285 312.573578,481.392609 
	C309.936554,483.422089 307.469635,485.675537 304.655548,487.472626 
	C299.694000,490.641144 295.091766,490.787018 290.861481,486.897186 
	C280.566498,477.430664 270.679565,467.519592 261.190002,457.247620 
	C256.951050,452.659180 257.234894,447.412476 261.339050,441.712891 
	C264.547241,437.257507 268.010254,432.981781 271.579163,428.807526 
	C274.013153,425.960724 274.746216,423.104187 272.654938,419.744873 
	C271.869843,418.483765 271.154785,417.053986 270.971466,415.595734 
	C270.014709,407.984955 264.831024,406.219543 258.279907,406.010254 
	C254.290390,405.882812 250.324341,405.223206 246.400970,404.552094 
	C238.058731,403.124969 235.084610,399.416931 234.981155,390.914215 
	C234.960907,389.250549 234.900131,387.583466 235.187103,385.554749 
	C234.771545,377.216125 235.087357,369.237518 234.961090,361.264496 
	C234.893387,356.990112 227.696457,350.390839 223.604187,350.895203 
	C221.628967,351.138672 220.512848,352.802673 219.361221,354.174316 
	C215.092590,359.258392 210.657928,364.201965 206.386932,369.723328 
	C197.185181,381.956299 187.120224,393.032166 177.530640,404.502960 
	C153.006577,433.838043 128.276871,463.001160 103.606674,492.213654 
	C98.354416,498.432953 92.645134,504.206329 85.222786,508.083527 
	C79.936523,510.844971 74.456696,512.309753 68.286758,512.783081 
	C60.979053,513.000000 53.958103,513.000000 46.468578,513.000000 
	C25.124525,510.875275 12.181245,498.465057 3.826299,480.267365 
	C1.568457,475.349640 1.685687,469.926422 1.222255,464.312897 
	C1.000000,459.975464 1.000000,455.950897 1.000000,451.463196 
	C1.418570,438.448547 5.503548,427.403351 14.059577,418.018311 
	C17.451031,414.298279 21.308468,411.149994 25.112009,407.945831 
	C63.027317,376.006042 100.944931,344.068970 138.833664,312.097626 
	C140.487823,310.701813 142.199371,309.381622 144.283569,307.953766 
	C150.054260,303.424927 155.259445,298.770874 160.754654,294.485321 
	C163.487305,292.354218 163.937088,290.421051 162.385941,287.284882 
	C159.878220,282.214752 156.744766,279.361267 150.481567,279.852448 
	C143.899567,280.368622 137.204956,280.419098 130.204071,279.659119 
	C128.836517,279.761688 127.861534,279.983643 126.856483,280.024261 
	C115.215164,280.494537 111.168190,276.934296 109.967697,265.392578 
	C109.503326,260.928009 108.739891,256.483032 108.321167,252.022247 
	C107.976791,248.353561 106.054924,246.917465 103.027489,245.139648 
	C93.862221,239.757507 86.273582,241.214935 79.138069,248.662766 
	C76.978294,250.917053 74.324440,252.767822 71.649643,254.474289 
	C66.321487,257.873535 61.071480,257.860840 56.477772,253.590652 
	C46.716187,244.516602 37.257450,235.106781 28.215906,225.315628 
	C23.324228,220.018372 23.362970,215.483673 27.433258,209.456146 
	C30.606226,204.757401 34.489254,200.600784 37.850937,196.043137 
	C38.345535,195.372574 38.922020,194.757706 39.366055,194.056549 
	C42.127625,189.695877 35.350521,174.714584 30.288141,174.023453 
	C24.683096,173.258209 19.067654,172.572052 13.452208,171.884109 
	C5.201373,170.873306 2.027387,167.294235 2.008307,159.102966 
	C1.978420,146.272354 1.974759,133.441574 2.010764,120.611008 
	C2.029981,113.762749 4.534208,110.632217 11.272461,109.037224 
	C17.440676,107.577156 23.801796,107.407043 30.042360,106.385605 
	C33.001961,105.901184 34.792019,104.570435 35.873283,101.759979 
	C42.082680,85.620331 42.663773,90.908768 32.847679,78.157646 
	C31.527094,76.442200 30.142986,74.771294 28.851877,73.036285 
	C23.245277,65.502068 23.647709,58.142448 30.171471,51.464581 
	C38.089302,43.359707 46.113277,35.357334 54.203022,27.423929 
	C60.995674,20.762545 66.021515,20.447750 73.624405,25.980284 
	C77.801300,29.019764 81.667694,32.455051 85.801964,35.549404 
	C86.601433,36.147770 87.300659,36.901619 88.203735,37.336384 
	C92.012985,39.170235 106.285057,32.087734 107.170616,27.906090 
	C108.551163,21.387144 108.577232,14.669716 110.037399,8.157474 
	C110.825523,4.642469 112.355408,1.896946 116.679619,1.222019 
z"/>
<path fill="#FFFFFF" opacity="1.000000" stroke="none" 
	d="
M116.531342,1.000000 
	C112.260071,3.370428 111.820312,8.111748 111.096039,12.438515 
	C110.100410,18.386278 109.571823,24.420000 109.047943,30.434732 
	C108.864731,32.538128 108.330223,33.497612 106.064812,34.135109 
	C101.261734,35.486717 96.522316,37.226162 92.287994,39.982231 
	C90.066742,41.428020 88.360962,40.494099 86.671135,39.136368 
	C81.457024,34.946941 76.254517,30.743011 71.058960,26.530577 
	C66.253593,22.634499 61.647789,22.859274 57.142799,27.346174 
	C48.411182,36.042732 40.064060,45.166168 30.877283,53.348907 
	C25.721216,57.941463 26.112881,67.046600 30.329096,71.928391 
	C34.481483,76.736259 38.188190,81.929741 42.355446,86.723663 
	C43.570930,88.121941 43.481003,89.108551 42.907261,90.468513 
	C41.408161,94.021866 39.333626,97.451965 38.539993,101.156471 
	C37.226768,107.286278 33.053612,108.809341 27.841175,108.946198 
	C22.097658,109.097000 16.510090,110.294952 10.855654,111.028381 
	C6.328945,111.615540 3.034654,115.503769 3.015116,120.227409 
	C2.960696,133.384521 2.954681,146.542221 3.016203,159.699265 
	C3.041611,165.133133 6.359629,169.073639 12.039620,169.910492 
	C18.502972,170.862762 25.027258,171.486786 31.546993,171.933014 
	C34.555130,172.138901 36.473125,172.766556 37.129955,176.138199 
	C37.644920,178.781631 38.503944,181.622604 40.064857,183.748108 
	C44.749466,190.127197 42.357666,194.986969 37.670414,199.922836 
	C34.418468,203.347244 31.532848,207.136612 28.652649,210.892563 
	C25.162960,215.443359 25.320868,219.701630 29.441950,223.911285 
	C38.876938,233.549103 48.436825,243.066422 58.047699,252.529358 
	C61.539593,255.967529 66.650429,255.979355 70.519501,252.969803 
	C76.427658,248.374146 82.412521,243.874725 88.241959,239.181824 
	C89.806702,237.922165 90.855064,237.861877 92.608139,238.842468 
	C95.264664,240.328430 98.122307,242.125702 101.020622,242.385880 
	C110.683632,243.253311 110.509064,250.145203 111.082718,257.080109 
	C111.427803,261.251770 111.687752,265.465332 112.870567,269.581085 
	C115.043800,277.143127 115.944138,277.999695 123.564781,278.005219 
	C125.396637,278.006561 127.228470,278.024567 129.514221,278.103424 
	C132.709396,280.868134 145.132950,305.240570 145.232224,308.783142 
	C137.922043,315.331909 130.841446,321.617218 123.621895,327.738647 
	C116.157104,334.068024 108.543434,340.221466 101.019852,346.481873 
	C89.098091,356.402008 77.167542,366.311920 65.298286,376.294647 
	C58.032532,382.405548 50.911884,388.688782 43.657551,394.813477 
	C35.926098,401.341003 27.869881,407.504883 20.395166,414.310486 
	C9.715026,424.034576 2.987945,436.009064 1.380691,450.843445 
	C1.000000,302.448303 1.011503,153.896637 0.926242,5.344992 
	C0.924330,2.013990 1.266633,0.855767 5.149158,0.877352 
	C42.119415,1.082888 79.091278,1.000000 116.531342,1.000000 
z"/>
<path fill="#FFFFFF" opacity="1.000000" stroke="none" 
	d="
M68.468658,513.000000 
	C74.920715,510.557404 81.983063,508.336853 88.147125,504.269226 
	C96.097366,499.022980 101.792290,491.403992 107.927208,484.308502 
	C114.232857,477.015472 120.262276,469.484009 126.433495,462.074341 
	C134.703720,452.144379 142.962296,442.204376 151.286362,432.319672 
	C157.307129,425.170044 163.471924,418.141754 169.490540,410.990326 
	C177.811584,401.103149 186.016602,391.118195 194.352341,381.243500 
	C197.535629,377.472534 200.942749,373.890442 204.547058,370.072388 
	C206.643967,368.390778 208.582687,368.743195 210.361969,369.775757 
	C218.043289,374.233459 225.821167,378.494141 233.979401,382.030365 
	C235.075348,382.505402 235.772934,383.442017 236.631348,384.726196 
	C236.912659,386.854126 236.987595,388.684265 236.990448,390.514496 
	C237.004089,399.288818 238.764603,401.650024 247.248474,402.919952 
	C253.711472,403.887421 260.243134,404.478271 266.765717,404.918488 
	C268.889801,405.061859 269.739838,405.479462 270.387726,407.657227 
	C271.900177,412.741211 273.473114,417.872589 276.189850,422.477722 
	C277.243256,424.263336 277.007629,425.324829 275.748749,426.823792 
	C271.446808,431.946167 267.340790,437.232422 263.091400,442.399719 
	C258.632050,447.822296 258.846375,452.317352 263.952271,457.434021 
	C272.189270,465.688354 280.582855,473.792694 288.635651,482.222717 
	C296.296509,490.242523 298.946350,489.676422 307.234131,483.219086 
	C311.361053,480.003632 315.317230,476.566864 319.309357,473.181549 
	C321.441162,471.373718 323.453979,470.515625 326.337311,471.969513 
	C330.209991,473.922272 334.260437,475.637665 338.402924,476.904419 
	C341.818726,477.948975 342.754486,479.929138 343.085266,483.241486 
	C343.794861,490.347260 344.794952,497.440582 346.069733,504.467560 
	C346.919128,509.149872 350.184753,511.090668 354.985992,511.046417 
	C368.312225,510.923553 381.640381,511.019867 394.967712,510.996552 
	C400.923401,510.986115 404.305756,507.590607 405.039581,501.462311 
	C405.889923,494.361023 407.180634,487.309326 407.905121,480.197906 
	C408.140167,477.890747 409.644531,477.634338 411.004517,477.083679 
	C413.832031,475.938843 417.184845,475.638153 419.567474,473.935242 
	C425.916656,469.397217 430.456238,472.099609 435.165588,476.570282 
	C438.591309,479.822388 442.328766,482.781738 446.137848,485.585510 
	C451.160797,489.282867 454.628540,488.866730 459.101349,484.406464 
	C467.358429,476.172485 475.525330,467.846863 483.852966,459.685089 
	C493.178680,450.545258 490.479828,447.626160 484.432251,439.948883 
	C481.296936,435.968689 477.914825,432.182770 474.783234,428.199799 
	C473.112946,426.075439 472.383026,423.859924 473.921631,421.026581 
	C476.149384,416.924133 477.876617,412.551605 479.058014,407.991119 
	C479.592773,405.926788 480.742432,405.090210 483.197632,404.877014 
	C490.640015,404.230774 498.025299,402.951569 505.447296,402.036194 
	C509.086273,401.587372 511.162018,399.506592 512.653809,396.111389 
	C513.000000,433.470795 512.946167,470.941772 513.086792,508.412018 
	C513.100159,511.990936 512.546997,513.110901 508.594543,513.107483 
	C362.042236,512.979919 215.489761,513.000000 68.468658,513.000000 
z"/>
<path fill="#DFE3E7" opacity="1.000000" stroke="none" 
	d="
M489.250244,293.241180 
	C483.216553,287.204956 477.587677,281.324493 471.801147,275.603485 
	C470.035461,273.857819 469.589325,272.512909 470.634644,270.015503 
	C491.812744,219.418365 490.709961,169.162491 465.072906,120.734459 
	C440.483978,74.286324 401.641052,44.815815 350.164978,33.165600 
	C314.582886,25.112564 279.713959,28.609941 246.055405,42.789886 
	C242.769028,44.174397 240.835815,44.054207 238.338104,41.429142 
	C232.834869,35.645294 226.950745,30.223845 221.036255,24.374165 
	C221.430618,20.963465 224.132263,20.069828 226.490479,19.001362 
	C246.859573,9.772496 267.723267,2.353141 290.452332,1.966710 
	C291.125305,1.955269 291.766968,1.816393 292.681641,1.247157 
	C306.020905,1.000000 319.041779,1.000000 332.531342,1.000000 
	C337.727356,2.935804 342.790588,2.076540 347.671570,2.754966 
	C362.954437,4.879175 377.627228,9.346024 391.739594,15.326118 
	C416.693573,25.900316 438.824799,40.773186 457.766815,60.330219 
	C482.185059,85.541229 498.641022,115.145424 507.906281,148.934113 
	C510.565186,158.630692 511.394775,168.519592 512.757446,178.703705 
	C513.000000,184.022095 513.000000,189.044189 513.000000,194.533142 
	C512.864380,195.166672 512.728699,195.333328 512.796509,195.750000 
	C513.000000,199.030594 513.000000,202.061188 513.000000,205.545898 
	C512.864380,206.166672 512.728699,206.333328 512.796509,206.750000 
	C513.000000,212.022095 513.000000,217.044189 513.000000,222.533142 
	C511.141296,227.231186 511.967590,231.800034 511.345001,236.187485 
	C509.132751,251.777786 504.513550,266.665161 498.254639,281.071503 
	C497.061157,283.818604 495.754669,286.518127 494.485992,289.230957 
	C493.520386,291.295746 492.592010,293.640839 489.250244,293.241180 
z"/>
<path fill="#FFFFFF" opacity="1.000000" stroke="none" 
	d="
M513.000000,178.531342 
	C510.977997,178.624207 511.179565,177.027390 510.978699,175.531754 
	C505.743225,136.547623 490.786072,101.894775 465.347412,71.721893 
	C448.397186,51.617168 428.164124,35.676411 404.982300,23.640856 
	C383.610413,12.544987 360.725342,5.793138 336.740112,3.014179 
	C335.454041,2.865171 334.011353,3.212767 333.106995,1.369300 
	C391.594910,1.000000 450.189911,1.044407 508.784424,0.894446 
	C512.468994,0.885017 513.100525,1.751792 513.092529,5.274517 
	C512.962097,62.870346 513.000000,120.466560 513.000000,178.531342 
z"/>
<path fill="#FFFFFF" opacity="1.000000" stroke="none" 
	d="
M488.969421,293.401306 
	C490.953400,292.821442 491.444824,291.096069 492.145294,289.634735 
	C501.869293,269.347992 508.425720,248.122299 511.014893,225.728485 
	C511.131531,224.719772 511.210541,223.737518 512.631104,223.106689 
	C513.000000,265.020905 513.000000,307.041779 513.000000,349.531342 
	C510.096222,344.606415 505.266998,343.195160 499.524628,342.912109 
	C493.522186,342.616272 487.558258,341.594910 481.565826,341.010498 
	C479.492340,340.808258 479.446259,339.052765 479.103119,337.866852 
	C477.798981,333.359375 476.290161,328.933105 473.928040,324.890045 
	C472.170563,321.881927 472.548706,319.665436 474.900818,317.074371 
	C479.374878,312.145782 483.578949,306.960968 487.703705,301.731506 
	C489.502075,299.451477 491.110901,296.844452 488.969421,293.401306 
z"/>
<path fill="#FFFFFF" opacity="1.000000" stroke="none" 
	d="
M292.531342,1.000000 
	C291.205811,4.836218 287.305237,3.282187 284.633820,3.641979 
	C262.365112,6.641124 241.476227,13.721208 221.172272,23.929722 
	C213.905411,22.323738 210.203949,27.838783 205.544632,31.044809 
	C202.069016,33.436348 198.643295,36.016739 195.680679,38.995686 
	C193.774445,40.912437 192.415390,40.751842 190.284058,39.803303 
	C185.734726,37.778645 181.158478,35.710815 176.403992,34.297226 
	C174.234222,33.652111 173.184280,32.391445 173.123947,30.795679 
	C172.894699,24.734110 171.399139,18.821304 171.115021,12.813025 
	C170.900681,8.280218 169.869858,4.490630 166.089600,1.339924 
	C208.020889,1.000000 250.041794,1.000000 292.531342,1.000000 
z"/>
<path fill="#FFFFFF" opacity="1.000000" stroke="none" 
	d="
M1.000000,464.468658 
	C3.017076,469.165344 3.501297,474.712433 5.820766,479.898468 
	C13.716055,497.551270 27.005264,508.153900 45.861244,512.632446 
	C32.065479,513.000000 18.129501,512.894531 4.197650,513.087341 
	C1.348800,513.126770 0.895971,512.410217 0.924324,509.726044 
	C1.082014,494.797852 1.000000,479.867157 1.000000,464.468658 
z"/>
<path fill="#FFFFFF" opacity="1.000000" stroke="none" 
	d="
M513.000000,206.750000 
	C512.708984,206.746719 512.657410,206.503113 512.922607,206.134583 
	C513.000000,206.000000 513.000000,206.500000 513.000000,206.750000 
z"/>
<path fill="#FFFFFF" opacity="1.000000" stroke="none" 
	d="
M513.000000,195.750000 
	C512.730957,195.741119 512.673096,195.492264 512.913208,195.126724 
	C513.000000,195.000000 513.000000,195.500000 513.000000,195.750000 
z"/>
<path fill="#2FA0D9" opacity="1.000000" stroke="none" 
	d="
M462.972321,157.104324 
	C474.931763,202.079407 470.025299,244.567459 445.308136,283.726593 
	C420.031128,323.772675 383.573975,347.967010 336.504272,354.976532 
	C291.692566,361.649780 251.043121,350.907623 215.663528,322.642792 
	C184.047485,297.384674 165.071808,264.296417 159.106354,224.133102 
	C154.166504,190.874741 159.233124,159.032425 174.713882,129.169983 
	C190.030151,99.624863 212.613007,76.897339 242.413010,62.042233 
	C284.301514,41.161095 327.666840,39.022083 371.084961,56.254314 
	C413.297577,73.008095 442.584412,103.412598 459.097137,145.873016 
	C460.483551,149.438034 461.637695,153.093338 462.972321,157.104324 
z"/>
<path fill="#FABC5E" opacity="1.000000" stroke="none" 
	d="
M156.450165,321.443207 
	C162.322708,316.489197 168.005936,311.859192 173.490616,307.004883 
	C175.619049,305.121063 176.639130,305.238190 178.441299,307.553680 
	C186.446701,317.839142 195.598969,327.075775 205.852554,335.105774 
	C208.864349,337.464447 208.977402,338.634827 206.542847,341.508087 
	C173.173019,380.891022 139.935104,420.385742 106.665489,459.853577 
	C100.333565,467.365173 94.086304,474.949921 87.658432,482.378418 
	C72.109215,500.348114 48.835617,502.491821 30.783163,487.711548 
	C14.302569,474.218292 12.506268,446.104401 27.487835,430.934540 
	C39.672256,418.596924 53.603889,408.210785 66.801254,397.011078 
	C96.509567,371.799652 126.378151,346.777039 156.450165,321.443207 
z"/>
<path fill="#FDFDFD" opacity="1.000000" stroke="none" 
	d="
M430.992737,326.851379 
	C442.918121,314.363708 453.924316,301.535706 462.235504,286.701569 
	C462.747528,286.905670 462.933014,286.931580 463.052795,287.034180 
	C472.094635,294.776611 472.096985,294.779297 464.825500,303.997498 
	C462.349670,307.136108 459.970154,310.360718 457.338989,313.364105 
	C454.467743,316.641510 453.957306,320.045776 455.890106,323.925415 
	C459.974487,332.123993 463.391022,340.596802 465.903839,349.407684 
	C467.011871,353.292755 469.505096,355.125122 473.407410,355.576569 
	C479.856476,356.322632 486.275330,357.344360 492.732178,358.002045 
	C495.407288,358.274536 496.506439,359.167389 496.440796,361.994446 
	C496.274536,369.157013 496.299835,376.327515 496.429108,383.491577 
	C496.475922,386.087372 495.469330,386.839508 492.979034,387.107269 
	C486.361511,387.818878 479.798279,389.039581 473.179352,389.731903 
	C469.081146,390.160492 466.762665,392.182220 465.947662,396.057007 
	C464.080383,404.934570 460.698547,413.197388 456.086365,420.988373 
	C453.867462,424.736603 454.364929,428.186707 457.144806,431.555420 
	C461.384216,436.692871 465.369354,442.040558 469.622650,447.165985 
	C471.201233,449.068268 471.329346,450.299774 469.431366,452.112549 
	C464.131012,457.174957 458.952850,462.372345 453.889465,467.672180 
	C452.091339,469.554260 450.867188,469.356079 449.007477,467.810883 
	C443.883820,463.553802 438.521454,459.583282 433.414001,455.307709 
	C430.214935,452.629669 426.986938,452.156494 423.289154,453.980835 
	C415.079407,458.031281 406.638245,461.506989 397.814636,463.996918 
	C393.482819,465.219299 391.858612,468.480957 391.314941,472.542694 
	C390.519745,478.483154 389.532104,484.412628 389.098755,490.381073 
	C388.843781,493.892609 387.473572,494.834961 384.143341,494.725403 
	C377.317596,494.500946 370.477814,494.573578 363.647064,494.699921 
	C361.116028,494.746704 360.206116,493.868011 359.937225,491.320862 
	C359.203461,484.370056 357.963165,477.470886 357.295380,470.515594 
	C356.869843,466.083679 354.404602,463.900970 350.467255,463.139069 
	C341.861206,461.473755 333.940826,458.106842 326.460724,453.681915 
	C322.492493,451.334503 319.060852,451.531067 315.496582,454.493286 
	C310.373871,458.750763 305.014282,462.722778 299.876038,466.962372 
	C298.066559,468.455444 296.862000,468.818451 295.030396,466.893768 
	C289.977692,461.584167 284.786835,456.399261 279.493622,451.328918 
	C277.643829,449.557007 277.580811,448.325928 279.211517,446.371063 
	C283.477814,441.256775 287.446533,435.894196 291.713898,430.780853 
	C294.385345,427.579773 295.040344,424.245178 292.967834,420.673065 
	C288.507568,412.985565 285.694550,404.648376 283.087921,396.232391 
	C281.876587,392.321350 279.715363,390.096344 275.393402,389.679413 
	C268.770905,389.040588 262.205444,387.830109 255.592560,387.062317 
	C253.416061,386.809631 252.269135,386.267059 252.306732,383.809662 
	C252.415543,376.695770 252.345245,369.579163 252.345245,361.845612 
	C268.522522,367.791107 284.660065,371.396149 301.689209,372.609558 
	C304.469055,375.278839 304.375305,378.609467 304.801392,381.670013 
	C308.926392,411.301056 330.786865,434.893494 360.260345,441.379395 
	C401.526794,450.460449 442.357605,419.584198 445.094055,377.533905 
	C446.162201,361.120728 442.367676,346.246155 433.292969,332.624298 
	C432.195923,330.977570 430.850372,329.417633 430.992737,326.851379 
z"/>
<path fill="#FDFDFD" opacity="1.000000" stroke="none" 
	d="
M141.372116,211.783691 
	C142.891129,228.895477 146.184570,245.286469 152.412170,261.875488 
	C144.784576,261.875488 137.736359,261.828247 130.689392,261.901001 
	C128.206207,261.926636 128.219818,260.303101 128.054016,258.587158 
	C127.429451,252.123474 126.550247,245.676361 126.175270,239.199371 
	C125.910591,234.627487 123.708191,232.000519 119.458290,231.175385 
	C110.689491,229.472916 102.638664,226.033615 95.005821,221.523712 
	C91.238342,219.297653 87.857170,219.574615 84.450989,222.371872 
	C79.175774,226.704041 73.681908,230.771576 68.444542,235.147339 
	C66.635895,236.658447 65.569496,236.660034 63.939011,234.972748 
	C58.729317,229.581573 53.429287,224.273468 48.032715,219.069595 
	C46.297195,217.396042 46.472214,216.286285 47.923782,214.534943 
	C52.279369,209.279877 56.351082,203.789352 60.712025,198.538956 
	C63.262604,195.468155 63.668373,192.346573 61.953884,188.848816 
	C57.851597,180.479706 54.302784,171.901306 51.740650,162.917496 
	C50.664368,159.143661 47.834602,157.367447 43.996544,156.878189 
	C37.557751,156.057404 31.152130,154.949570 24.699986,154.273117 
	C22.032555,153.993454 20.991123,153.231720 21.075275,150.389343 
	C21.277359,143.563644 21.329250,136.720383 21.057199,129.899551 
	C20.929356,126.694267 22.036360,125.492744 25.082279,125.177032 
	C31.040899,124.559425 36.958580,123.518745 42.923248,122.996056 
	C48.100590,122.542366 51.140530,120.298393 52.115707,114.977043 
	C53.535873,107.227509 56.679821,100.079834 60.552441,93.233368 
	C64.310890,86.588768 64.182686,85.628944 59.309330,79.427681 
	C55.502205,74.583191 51.740417,69.701012 47.833775,64.937859 
	C46.431976,63.228722 46.294712,62.136173 48.041298,60.477257 
	C53.112366,55.660740 58.052559,50.699024 62.882580,45.640068 
	C64.623978,43.816132 65.848595,43.699127 67.846840,45.287212 
	C72.928215,49.325577 78.302925,52.996681 83.355560,57.068737 
	C86.760757,59.813068 90.060242,60.318119 93.910202,58.217308 
	C101.941582,53.834824 110.130432,49.795471 118.979546,47.265186 
	C122.170952,46.352654 123.980171,44.272831 124.392456,40.870464 
	C125.213203,34.097225 126.288582,27.353586 127.031937,20.572851 
	C127.321739,17.929287 128.175308,16.855013 131.019653,16.934065 
	C138.179062,17.133047 145.350052,17.105223 152.511398,16.944874 
	C155.113220,16.886618 155.849701,17.788849 156.111359,20.308786 
	C156.798584,26.927139 158.050858,33.487965 158.699188,40.108803 
	C159.126938,44.477077 161.435928,46.841541 165.410004,47.628601 
	C174.167709,49.363045 182.240784,52.765972 189.864807,57.289955 
	C193.664871,59.544865 196.988464,59.223408 200.394348,56.413464 
	C205.659866,52.069279 211.160248,48.009422 216.416016,43.653984 
	C218.179672,42.192463 219.210266,42.065552 220.900452,43.790764 
	C223.331787,46.272461 226.147202,48.377872 229.222809,51.006363 
	C213.381088,60.090118 200.219727,70.447487 188.296936,82.886406 
	C185.346344,83.898293 183.541504,82.135498 181.642197,80.894836 
	C152.015381,61.541920 114.703659,65.507484 90.494331,91.096390 
	C79.697975,102.507980 73.529099,116.265594 71.861549,132.138214 
	C69.632217,153.358093 76.115356,171.709015 90.017410,187.243652 
	C102.127754,200.776154 117.976913,207.845871 136.014542,209.906998 
	C137.832321,210.114716 139.701584,210.059372 141.372116,211.783691 
z"/>
<path fill="#EF6252" opacity="1.000000" stroke="none" 
	d="
M141.675690,211.663544 
	C101.447235,210.951157 71.558281,181.944427 69.262245,141.872513 
	C66.925568,101.091187 102.099770,65.629181 143.667679,66.755280 
	C160.054642,67.199211 174.622818,72.464027 187.725067,82.817184 
	C180.745148,91.493416 173.435394,99.921501 167.715668,109.548241 
	C165.948547,112.522438 164.608673,110.561562 163.018539,109.468643 
	C144.481567,96.728081 120.216347,102.613365 109.490952,122.431938 
	C97.344505,144.876343 112.627350,173.571594 138.088181,175.766052 
	C142.271103,176.126572 143.123581,177.016129 142.568741,181.350357 
	C141.302643,191.240692 140.639450,201.241226 141.675690,211.663544 
z"/>
<path fill="#EF6252" opacity="1.000000" stroke="none" 
	d="
M430.676147,326.619385 
	C449.823212,346.870300 452.925507,382.550720 438.099976,408.086639 
	C422.348419,435.217468 393.183044,448.894379 361.845123,443.845764 
	C333.366333,439.257751 309.636597,416.035583 303.526855,386.562744 
	C302.654480,382.354279 302.535919,377.989502 302.061218,373.241821 
	C313.195862,373.063568 324.336182,373.093536 335.380432,371.357758 
	C338.566101,370.857117 337.993958,372.990021 338.168945,374.660156 
	C339.523102,387.583710 345.404877,397.678741 356.854736,404.139862 
	C371.718048,412.527222 390.217926,409.544189 401.542206,397.088837 
	C413.317871,384.136993 414.939636,365.813965 405.134247,351.656372 
	C402.930878,348.475098 403.132111,347.393555 406.367767,345.407135 
	C415.023193,340.093384 422.899353,333.685181 430.676147,326.619385 
z"/>
<path fill="#FCFDFD" opacity="1.000000" stroke="none" 
	d="
M149.990448,147.050400 
	C149.020020,150.285797 147.746750,153.085983 147.370102,156.001968 
	C146.909317,159.569519 145.004074,160.148071 141.951553,160.120850 
	C132.844894,160.039658 124.663544,154.079086 122.152550,145.466476 
	C119.535400,136.489761 123.083763,126.799911 130.782242,121.900421 
	C138.368988,117.072044 149.101624,117.914093 155.909058,123.654297 
	C157.902512,125.335228 158.427917,126.759087 157.115967,129.140594 
	C154.063232,134.682037 152.264908,140.757156 149.990448,147.050400 
z"/>
<path fill="#FBFCFC" opacity="1.000000" stroke="none" 
	d="
M390.196350,357.726898 
	C396.601440,366.238800 397.204987,374.700256 392.180359,382.477325 
	C387.507263,389.710297 378.667786,393.520447 370.643829,391.760468 
	C362.356995,389.942871 355.675873,382.772766 354.252380,374.263885 
	C353.574738,370.213226 354.009064,367.686218 359.090973,366.557587 
	C367.970398,364.585632 376.528259,361.304596 384.748657,357.276794 
	C386.442017,356.447052 388.302612,354.961945 390.196350,357.726898 
z"/>
<path fill="#DEE3E7" opacity="1.000000" stroke="none" 
	d="
M236.982529,384.565399 
	C227.560104,381.818420 218.945267,377.196167 210.600403,372.042419 
	C209.028702,371.071747 207.505676,370.100128 205.229782,369.933136 
	C204.790359,368.099121 205.901917,366.871887 206.986252,365.597260 
	C211.389511,360.421295 215.931107,355.349579 220.075562,349.972687 
	C222.072662,347.381683 223.664215,347.370148 226.117157,349.067810 
	C228.559265,350.757965 231.131897,352.353271 233.847504,353.526947 
	C236.331940,354.600769 237.276077,355.969940 237.207550,358.743744 
	C236.998795,367.193909 237.108429,375.651886 236.982529,384.565399 
z"/>
<path fill="#DEE3E7" opacity="1.000000" stroke="none" 
	d="
M145.411774,309.060120 
	C139.840240,299.148682 133.349167,289.811005 129.982483,278.539948 
	C138.936127,278.077972 147.905212,278.034973 156.871353,277.850250 
	C158.845322,277.809570 159.806534,278.614807 160.647827,280.287140 
	C162.570618,284.109192 166.778931,288.214996 166.169144,291.478851 
	C165.545624,294.816254 160.372467,297.400970 157.021667,300.105499 
	C153.300400,303.109039 150.046768,306.714478 145.411774,309.060120 
z"/>
<path fill="#FEFEFE" opacity="1.000000" stroke="none" 
	d="
M307.252747,329.807861 
	C251.134064,326.038239 206.310669,291.950836 190.145752,238.616577 
	C176.432755,193.372101 185.011612,151.223297 216.805969,116.069481 
	C255.290512,73.518570 303.625275,61.073597 357.564819,80.412109 
	C405.396362,97.560783 433.680450,133.425018 440.700714,183.845169 
	C448.314392,238.527130 422.512604,287.841156 374.094055,314.623993 
	C353.558685,325.983246 331.216125,330.731079 307.252747,329.807861 
z"/>
<path fill="#1D3951" opacity="1.000000" stroke="none" 
	d="
M130.038681,380.989105 
	C126.209343,378.186829 126.079803,376.059570 129.583786,372.820801 
	C137.334030,365.657166 136.943176,365.651855 144.703720,372.844330 
	C148.205292,376.089630 148.074310,378.240234 144.488785,380.807373 
	C144.355118,380.903107 144.250824,381.039886 144.133041,381.157745 
	C137.171982,388.123199 137.171967,388.123169 130.038681,380.989105 
z"/>
<path fill="#223C52" opacity="1.000000" stroke="none" 
	d="
M106.306091,409.747650 
	C110.676369,412.847015 110.554756,415.219116 106.709152,418.707489 
	C99.297470,425.430511 99.708786,425.492859 92.281639,418.599152 
	C88.837616,415.402435 88.024467,413.076019 92.232880,410.250305 
	C92.504265,410.068054 92.709518,409.787231 92.945000,409.551697 
	C99.529686,402.965759 99.529686,402.965759 106.306091,409.747650 
z"/>
<path fill="#213C52" opacity="1.000000" stroke="none" 
	d="
M60.411831,443.115784 
	C61.409138,442.290314 62.120239,441.009338 63.108349,441.929108 
	C66.392517,444.986176 69.542770,448.188354 72.708298,451.370819 
	C73.653709,452.321259 73.059990,453.172150 72.312592,453.921143 
	C69.490738,456.749084 66.664803,459.572937 63.836269,462.394196 
	C63.026344,463.202057 62.171837,463.439850 61.256691,462.541992 
	C60.900444,462.192413 60.549423,461.836609 60.178604,461.502960 
	C50.643169,452.923187 50.642742,452.923676 60.411831,443.115784 
z"/>
<path fill="#1B3953" opacity="1.000000" stroke="none" 
	d="
M378.378143,200.395020 
	C381.047089,197.618195 383.847504,195.359482 385.813568,192.522568 
	C390.059601,186.395721 395.793030,185.687454 403.054321,187.203140 
	C398.626434,192.059143 394.687408,196.929520 390.153778,201.163223 
	C386.971375,204.135086 387.359985,206.195847 389.690094,209.396729 
	C394.861603,216.500839 399.612122,223.911469 404.570892,231.251312 
	C396.450958,233.549103 394.470001,232.879196 390.118591,226.487503 
	C387.498627,222.639130 384.743713,218.873444 382.311523,214.909805 
	C380.801453,212.448914 379.939148,213.078629 377.896851,214.510910 
	C372.837769,218.058868 372.591675,223.004333 373.207336,228.204788 
	C373.701050,232.375244 371.344788,232.210754 368.455170,232.176682 
	C365.644623,232.143539 363.526855,232.476212 363.583435,228.255814 
	C363.831299,209.780212 363.830750,191.297531 363.584198,172.821899 
	C363.527588,168.580109 365.694519,168.987122 368.466705,168.941849 
	C371.354889,168.894669 373.388611,168.745224 373.256317,172.900406 
	C372.923340,183.356064 373.146149,193.829422 373.146149,204.768814 
	C375.658966,204.025558 376.590637,201.938095 378.378143,200.395020 
z"/>
<path fill="#1D3B55" opacity="1.000000" stroke="none" 
	d="
M274.911499,198.787186 
	C269.285217,194.453308 269.372284,193.736862 275.244171,190.750717 
	C279.016937,188.832062 282.998413,187.843643 287.187286,187.520172 
	C298.991211,186.608627 305.869537,192.830780 306.005096,204.683868 
	C306.088867,212.010941 306.151672,219.343399 305.941803,226.665375 
	C305.881989,228.752258 307.896759,232.014404 302.922699,232.292694 
	C298.449005,232.542984 298.735321,230.003693 298.799408,226.346146 
	C293.592499,230.879349 288.118622,232.539398 281.938934,232.069489 
	C277.766357,231.752197 274.158813,230.107071 271.076904,227.545837 
	C266.940704,224.108398 266.215149,219.282623 267.222931,214.325378 
	C268.248932,209.278336 272.260315,207.091354 276.818146,205.982132 
	C282.538300,204.590057 288.413055,204.898880 294.232239,205.046814 
	C296.804626,205.112228 297.286285,204.166855 297.027039,201.855362 
	C296.566681,197.751297 294.261932,195.605774 290.358826,195.005661 
	C284.842804,194.157547 279.788086,195.371979 274.911499,198.787186 
z"/>
<path fill="#1B3953" opacity="1.000000" stroke="none" 
	d="
M238.878632,209.999878 
	C238.878494,201.516708 238.774048,193.531387 238.935623,185.551453 
	C238.991119,182.811340 238.328247,181.635757 235.376434,181.837143 
	C231.899994,182.074326 228.367996,181.620926 224.909485,181.964401 
	C221.069504,182.345749 221.039062,180.228928 221.086014,177.464859 
	C221.130447,174.847000 220.804428,172.808273 224.783463,172.891724 
	C237.916702,173.167206 251.061493,173.125824 264.196960,172.909485 
	C267.747223,172.851013 267.876740,174.539780 267.738007,177.142090 
	C267.608643,179.568924 268.386414,182.498077 264.230164,181.897934 
	C263.904327,181.850876 263.563751,181.868042 263.233429,181.895813 
	C258.658478,182.280487 252.558746,179.843246 249.927322,182.925644 
	C247.677200,185.561432 249.181656,191.468521 249.162003,195.929260 
	C249.114395,206.739655 248.920746,217.557388 249.256302,228.357559 
	C249.392365,232.736954 246.959015,232.277374 244.311661,232.100861 
	C241.848297,231.936615 238.456436,233.537766 238.787903,228.456146 
	C239.176788,222.494110 238.878738,216.487259 238.878632,209.999878 
z"/>
<path fill="#1E3B56" opacity="1.000000" stroke="none" 
	d="
M320.637207,220.415085 
	C322.494965,219.413559 323.352875,220.832031 324.418030,221.429871 
	C327.347015,223.073746 330.418549,224.359406 333.729675,224.772736 
	C337.268463,225.214493 341.262817,225.363388 342.546112,221.166656 
	C343.796783,217.076599 340.045044,215.869217 337.200287,214.619980 
	C334.177124,213.292374 330.985138,212.354050 327.933899,211.084518 
	C321.765442,208.517975 318.747559,204.455811 318.950653,199.229996 
	C319.154480,193.985809 322.980713,189.012711 328.609100,187.141129 
	C335.581146,184.822800 342.285034,185.733459 348.886139,188.926971 
	C352.657166,190.751328 350.380219,192.852005 349.741882,195.024063 
	C348.888031,197.929367 347.265594,197.391571 345.233704,196.276825 
	C341.487640,194.221649 337.477020,193.160278 333.247040,194.422302 
	C330.987213,195.096527 328.849731,196.251099 328.708191,199.085403 
	C328.568756,201.877228 330.782959,202.661072 332.780701,203.423431 
	C337.729218,205.311813 342.840454,206.718430 347.402924,209.614441 
	C353.972687,213.784515 355.139832,222.172821 349.697021,227.774628 
	C343.105286,234.558868 324.279968,234.246536 317.715546,227.338242 
	C316.749634,226.321716 317.017059,225.693832 317.602600,224.821472 
	C318.528595,223.441803 319.441681,222.053467 320.637207,220.415085 
z"/>
<path fill="#F6F7F8" opacity="1.000000" stroke="none" 
	d="
M281.239014,223.145691 
	C277.946716,221.852661 276.901337,219.652390 277.493164,216.669174 
	C278.054291,213.840607 280.163666,212.550201 282.733124,212.024246 
	C286.985504,211.153748 291.315430,211.360962 295.628265,211.305603 
	C297.729095,211.278656 297.981934,212.346466 298.051819,214.086502 
	C298.249756,219.014618 295.257111,222.838150 289.955353,223.788788 
	C287.186432,224.285278 284.339691,224.389771 281.239014,223.145691 
z"/>
</svg>